<svg width="24" height="24" viewBox="0 0 24 24" fill="none" xmlns="http://www.w3.org/2000/svg">
<g id="settings">
<g id="ic">
<path fill-rule="evenodd" clip-rule="evenodd" d="M9.09835 9.09835C9.80161 8.39509 10.7554 8 11.75 8C12.7446 8 13.6984 8.39509 14.4017 9.09835C15.1049 9.80161 15.5 10.7554 15.5 11.75C15.5 12.7446 15.1049 13.6984 14.4017 14.4017C13.6984 15.1049 12.7446 15.5 11.75 15.5C10.7554 15.5 9.80161 15.1049 9.09835 14.4017C8.39509 13.6984 8 12.7446 8 11.75C8 10.7554 8.39509 9.80161 9.09835 9.09835ZM11.75 9.5C11.1533 9.5 10.581 9.73705 10.159 10.159C9.73705 10.581 9.5 11.1533 9.5 11.75C9.5 12.3467 9.73705 12.919 10.159 13.341C10.581 13.7629 11.1533 14 11.75 14C12.3467 14 12.919 13.7629 13.341 13.341C13.7629 12.919 14 12.3467 14 11.75C14 11.1533 13.7629 10.581 13.341 10.159C12.919 9.73705 12.3467 9.5 11.75 9.5Z" fill="#1976d2"/>
<path fill-rule="evenodd" clip-rule="evenodd" d="M5.41631 19.2047C5.73369 19.5221 6.22246 19.5817 6.60713 19.352L8.59141 18.1624C8.87578 18.3033 9.16523 18.4239 9.45088 18.5191L10.012 20.7624C10.1199 21.1966 10.5097 21.5 10.9578 21.5H12.5422C12.9916 21.5 13.3801 21.1966 13.488 20.7624L14.0504 18.5217C14.336 18.4239 14.6242 18.3033 14.9086 18.1599L16.8929 19.352C17.2775 19.5817 17.7663 19.5208 18.0837 19.2047L19.2047 18.0837C19.5221 17.7676 19.5817 17.2775 19.352 16.8929L18.1624 14.9086C18.3021 14.6268 18.4227 14.3373 18.5191 14.0491L20.7611 13.488C21.1966 13.3801 21.5 12.9903 21.5 12.5422V10.9578C21.5 10.5097 21.1966 10.1199 20.7624 10.012L18.5217 9.44961C18.4239 9.1627 18.3021 8.87324 18.1599 8.59141L19.352 6.60713C19.5817 6.22246 19.5221 5.73369 19.2047 5.41631L18.0837 4.29531C17.7663 3.97793 17.2775 3.91826 16.8929 4.14805L14.9086 5.3376C14.6242 5.19668 14.3348 5.07607 14.0491 4.98086L13.488 2.73887C13.3801 2.30342 12.9903 2 12.5422 2H10.9578C10.5084 2 10.1199 2.30342 10.012 2.73887L9.44961 4.97832C9.16397 5.07607 8.87578 5.19668 8.59141 5.34014L6.60713 4.14805C6.22246 3.91826 5.73369 3.9792 5.41631 4.29531L4.29531 5.41631C3.97793 5.73242 3.91826 6.22246 4.14805 6.60713L5.3376 8.59141C5.19795 8.87324 5.07734 9.1627 4.98086 9.45088L2.73887 10.012C2.30342 10.1199 2 10.5097 2 10.9578V12.5422C2 12.9916 2.30342 13.3801 2.73887 13.488L4.97832 14.0504C5.07607 14.3373 5.19795 14.6268 5.34014 14.9086L4.14805 16.8929C3.91826 17.2775 3.97793 17.7663 4.29531 18.0837L5.41631 19.2047ZM9.93529 6.39752L10.706 6.13376L11.3674 3.5H12.1322L12.7939 6.14358L13.5748 6.40388C13.7895 6.47544 14.015 6.56883 14.2426 6.68163L14.9769 7.04552L17.3125 5.6454L17.8543 6.18726L16.4479 8.52826L16.8206 9.26705C16.9325 9.48878 17.0272 9.7142 17.1018 9.93337L17.365 10.7058L20 11.3672V12.1322L17.3577 12.7935L17.0967 13.5729C17.0234 13.792 16.9296 14.0181 16.8183 14.2426L16.4545 14.977L17.8546 17.3125L17.3127 17.8543L14.9718 16.4479L14.233 16.8206C14.0103 16.933 13.7856 17.0269 13.5647 17.1025L12.7939 17.3663L12.1328 20H11.3675L10.7063 17.3565L9.92522 17.0961C9.71054 17.0246 9.48505 16.9312 9.25742 16.8184L8.52308 16.4545L6.18754 17.8546L5.64568 17.3127L7.05208 14.9717L6.67936 14.233C6.56749 14.0112 6.47285 13.7858 6.39817 13.5666L6.13503 12.7943L3.5 12.1326V11.3678L6.14233 10.7065L6.40326 9.9271C6.4766 9.70803 6.57042 9.48187 6.68165 9.25738L7.04551 8.52305L5.6454 6.18754L6.18726 5.64568L8.52823 7.05206L9.267 6.67938C9.48972 6.56703 9.71443 6.4731 9.93529 6.39752Z" fill="#1976d2"/>
</g>
</g>
</svg>
