<svg width="24" height="24" viewBox="0 0 24 24" fill="none" xmlns="http://www.w3.org/2000/svg">
<g id="polygon">
<path id="ic" fill-rule="evenodd" clip-rule="evenodd" d="M5 2.25C4.27065 2.25 3.57118 2.53973 3.05546 3.05546C2.53973 3.57118 2.25 4.27065 2.25 5C2.25 5.72935 2.53973 6.42882 3.05546 6.94454C3.39024 7.27933 3.80245 7.51888 4.25 7.64576V16.3542C3.80245 16.4811 3.39024 16.7207 3.05546 17.0555C2.53973 17.5712 2.25 18.2707 2.25 19C2.25 19.7293 2.53973 20.4288 3.05546 20.9445C3.57118 21.4603 4.27065 21.75 5 21.75C5.72935 21.75 6.42882 21.4603 6.94454 20.9445C7.27933 20.6098 7.51887 20.1975 7.64576 19.75H16.3542C16.4811 20.1975 16.7207 20.6098 17.0555 20.9445C17.5712 21.4603 18.2707 21.75 19 21.75C19.7293 21.75 20.4288 21.4603 20.9445 20.9445C21.4603 20.4288 21.75 19.7293 21.75 19C21.75 18.2707 21.4603 17.5712 20.9445 17.0555C20.6098 16.7207 20.1975 16.4811 19.75 16.3542V7.64576C20.1975 7.51887 20.6098 7.27933 20.9445 6.94454C21.4603 6.42882 21.75 5.72935 21.75 5C21.75 4.27065 21.4603 3.57118 20.9445 3.05546C20.4288 2.53973 19.7293 2.25 19 2.25C18.2707 2.25 17.5712 2.53973 17.0555 3.05546C16.7207 3.39024 16.4811 3.80245 16.3542 4.25H7.64576C7.51888 3.80245 7.27933 3.39024 6.94454 3.05546C6.42882 2.53973 5.72935 2.25 5 2.25ZM19 6.25C19.3315 6.25 19.6495 6.1183 19.8839 5.88388C20.1183 5.64946 20.25 5.33152 20.25 5C20.25 4.66848 20.1183 4.35054 19.8839 4.11612C19.6495 3.8817 19.3315 3.75 19 3.75C18.6685 3.75 18.3505 3.8817 18.1161 4.11612C17.8817 4.35054 17.75 4.66848 17.75 5C17.75 5.33152 17.8817 5.64946 18.1161 5.88388C18.3505 6.1183 18.6685 6.25 19 6.25ZM18.25 7.64576V16.3542C17.8025 16.4811 17.3902 16.7207 17.0555 17.0555C16.7207 17.3902 16.4811 17.8025 16.3542 18.25H7.64576C7.51887 17.8025 7.27933 17.3902 6.94454 17.0555C6.60976 16.7207 6.19755 16.4811 5.75 16.3542V7.64576C6.19755 7.51888 6.60976 7.27933 6.94454 6.94454C7.27933 6.60976 7.51888 6.19755 7.64576 5.75H16.3542C16.4811 6.19755 16.7207 6.60976 17.0555 6.94454C17.3902 7.27933 17.8025 7.51887 18.25 7.64576ZM19 17.75C18.6685 17.75 18.3505 17.8817 18.1161 18.1161C17.8817 18.3505 17.75 18.6685 17.75 19C17.75 19.3315 17.8817 19.6495 18.1161 19.8839C18.3505 20.1183 18.6685 20.25 19 20.25C19.3315 20.25 19.6495 20.1183 19.8839 19.8839C20.1183 19.6495 20.25 19.3315 20.25 19C20.25 18.6685 20.1183 18.3505 19.8839 18.1161C19.6495 17.8817 19.3315 17.75 19 17.75ZM5.88388 18.1161C6.1183 18.3505 6.25 18.6685 6.25 19C6.25 19.3315 6.1183 19.6495 5.88388 19.8839C5.64946 20.1183 5.33152 20.25 5 20.25C4.66848 20.25 4.35054 20.1183 4.11612 19.8839C3.8817 19.6495 3.75 19.3315 3.75 19C3.75 18.6685 3.8817 18.3505 4.11612 18.1161C4.35054 17.8817 4.66848 17.75 5 17.75C5.33152 17.75 5.64946 17.8817 5.88388 18.1161ZM6.25 5C6.25 4.66848 6.1183 4.35054 5.88388 4.11612C5.64946 3.8817 5.33152 3.75 5 3.75C4.66848 3.75 4.35054 3.8817 4.11612 4.11612C3.8817 4.35054 3.75 4.66848 3.75 5C3.75 5.33152 3.8817 5.64946 4.11612 5.88388C4.35054 6.1183 4.66848 6.25 5 6.25C5.33152 6.25 5.64946 6.1183 5.88388 5.88388C6.1183 5.64946 6.25 5.33152 6.25 5Z" fill="white"/>
</g>
</svg>
